<?xml version="1.0" encoding="utf-8"?>
<!-- Generator: Adobe Illustrator 26.1.0, SVG Export Plug-In . SVG Version: 6.00 Build 0)  -->
<svg version="1.1" id="Layer_1" xmlns="http://www.w3.org/2000/svg" xmlns:xlink="http://www.w3.org/1999/xlink" x="0px" y="0px"
	 viewBox="0 0 299.64 98.94" style="enable-background:new 0 0 299.64 98.94;" xml:space="preserve">
<style type="text/css">
	.st0{fill:#4B5DFE;}
	.st1{fill:#4B5DFF;}
</style>
<g>
	<path class="st0" d="M2.36,34.34C2.36,24,2.38,13.65,2.33,3.3c0-1.02,0.28-1.31,1.44-1.3c6.7,0.06,13.41,0.08,20.11,0.01
		c1.37-0.01,1.55,0.4,1.55,1.48c-0.04,19-0.04,38.01-0.04,57.01c0,2.09,0.1,4.18,0.71,6.21c1.21,4.03,4.36,6.37,9.07,6.78
		c5.27,0.46,9.49-1.35,11.47-5.29c2.66-5.29,2.49-10.67-0.33-15.87c-1.97-3.63-5.71-4.87-9.97-5.12c-2-0.12-3.98,0.12-5.96,0.28
		c-0.81,0.07-1.12-0.05-1.12-0.85c0.02-7.26,0-14.52-0.01-21.79c0-0.51-0.02-0.93,0.79-0.95c6.52-0.11,13.04-0.23,19.31,1.73
		c11.38,3.56,18.36,10.83,21.76,21c1.99,5.95,2.09,12.08,1.64,18.23c-0.32,4.4-1.2,8.71-3.14,12.79
		c-4.28,8.98-11.95,14.54-22.29,17.1c-11.38,2.82-22.39,2-32.34-4.11C7.57,86.07,3.67,79.46,2.66,71.5
		c-0.8-6.32-0.57-12.67-0.43-19.02c0.13-6.04,0.03-12.09,0.03-18.13C2.29,34.34,2.33,34.34,2.36,34.34z"/>
	<path class="st0" d="M250.07,21.77c3.51-4.72,7.16-9.01,11.83-12.46c5.56-4.11,11.93-6.16,18.95-6.74
		c4.96-0.41,9.91-0.24,14.88-0.27c0.17,0.76-0.36,1.22-0.65,1.72c-8.78,15.24-18.12,30.19-27.16,45.31
		c-0.65,1.08-0.63,1.81,0.09,2.85c10.28,14.73,19.39,30.1,29.04,45.18c0.13,0.21,0.23,0.44,0.49,0.95c-1.28,0-2.34,0-3.4,0
		c-9.93,0.02-19.87,0.02-29.8,0.1c-1.27,0.01-1.95-0.38-2.59-1.36c-3.33-5.18-6.73-10.32-10.12-15.47
		c-0.34-0.52-0.72-1.01-1.12-1.57c-0.68,0.27-0.9,0.87-1.25,1.34c-4.9,6.56-10.93,11.84-19.16,14.63
		c-3.51,1.19-7.14,1.85-10.85,2.12c-5.71,0.42-11.42,0.54-17.34,0.25c0.78-1.79,1.77-3.28,2.81-4.74
		c9.79-13.75,18.88-27.9,28.36-41.83c0.69-1.01,0.67-1.74,0.07-2.72c-6.09-9.96-12.62-19.69-18.88-29.56
		c-3.24-5.11-6.54-10.19-9.78-15.3c-1.18-1.86-1.01-2.07,1.34-2.11c5.73-0.11,11.46-0.22,17.14,0.65
		c9.02,1.38,15.97,5.92,21.71,12.32C246.58,17.15,248.3,19.36,250.07,21.77z"/>
	<path class="st0" d="M175.66,43.02c0-13.44,0.01-24.33-0.02-35.22c0-1.04,0.29-1.3,1.35-1.29c6.24,0.07,12.48,0.1,18.72,0.05
		c1.28-0.01,1.53,0.37,1.52,1.54c-0.06,6.17,0.02,12.34-0.06,18.51c-0.02,1.35,0.42,1.62,1.7,1.58c2.73-0.08,5.47,0.02,8.21,0
		c0.82-0.01,1.21,0.15,1.2,1.09c-0.05,5.71-0.05,11.43-0.02,17.15c0,0.83-0.25,1.06-1.08,1.05c-2.91-0.02-5.81,0.08-8.72,0.04
		c-1.02-0.01-1.27,0.29-1.27,1.26c0.03,15.45,0.01,30.9,0.01,46.34c0,1.46-0.01,1.49-1.41,1.1c-9.59-2.65-16.34-8.2-19.22-17.68
		c-0.98-3.22-1.05-6.54-1.09-9.84C175.36,59.27,175.83,49.87,175.66,43.02z"/>
	<path class="st0" d="M169.06,51.61c0,14.46-0.01,28.91,0.03,43.37c0,1.16-0.33,1.45-1.5,1.43c-5.86-0.08-11.71-0.11-17.57-0.09
		c-1.07,0-1.26-0.35-1.25-1.28c0.08-29.12,0.13-58.24,0.16-87.36c0-0.96,0.29-1.16,1.23-1.16c5.81,0.04,11.63,0.04,17.44-0.02
		c1.13-0.01,1.42,0.26,1.41,1.36c-0.04,14.58-0.03,29.16-0.03,43.74C169.02,51.61,169.04,51.61,169.06,51.61z"/>
	<path class="st1" d="M112.85,96.37c-20.43,1.14-37.86-15.23-38.9-36.53c-1.04-21.3,14.7-39.43,35.14-40.46
		c20.37-1.03,37.69,15.31,38.73,36.54S133.21,95.24,112.85,96.37z M128.58,30.18c-11.3,9.9-22.58,19.74-34.26,29.17
		c2.94,1.12,5.91,2.12,8.9,3.1c-1.73,3.36-3.17,6.83-4.72,10.28c-2.22,4.96-4.47,9.87-6.41,14.97c0.3,0.02,0.2,0.07,0.34-0.01
		c10.72-10.15,22.47-19.24,33.72-28.74c-3.13-1.04-6.24-2.14-9.33-3.29c1.43-2.85,11.75-23.86,11.91-25.38L128.58,30.18z"/>
</g>
</svg>
