<?xml version="1.0" encoding="utf-8"?>
<!-- Generator: Adobe Illustrator 26.1.0, SVG Export Plug-In . SVG Version: 6.00 Build 0)  -->
<svg version="1.1" id="Layer_1" xmlns="http://www.w3.org/2000/svg" xmlns:xlink="http://www.w3.org/1999/xlink" x="0px" y="0px"
	 viewBox="0 0 646.56 228" style="enable-background:new 0 0 646.56 228;" xml:space="preserve">
<style type="text/css">
	.st0{fill:#5A00CB;}
	.st1{fill:#661DC3;}
	.st2{fill:#651CC3;}
	.st3{fill:#6618C8;}
</style>
<path class="st0" d="M48.71,138.83c0.34,4.8,0.31,9.64,1.31,14.38c1.83,8.65,7.04,14.42,16.13,16.24c10.01,2,19.14,0.39,25.51-8.13
	c5.22-6.98,6.13-15.1,5.59-23.39c-0.43-6.64-1.87-13.04-6.14-18.56c-3.85-4.98-9.18-7.33-15.39-8.28
	c-5.44-0.83-10.86-0.34-16.26,0.24c-1.95,0.21-2.53-0.24-2.52-2.1c0.03-16.43-0.01-32.87-0.05-49.3c0-1.2,0.08-2.06,1.73-2.12
	c15.04-0.56,30.05-0.42,44.25,5.08c21.8,8.45,35.97,23.98,42.2,45.46c6.96,23.98,6.75,48.19-3.01,71.5
	c-8.86,21.16-26.31,33.55-48.95,39c-23.73,5.72-46.58,3.55-67.01-10.33C10.96,198.22,2.98,183.6,0.75,166.04
	c-0.53-4.19-1.05-8.38-0.79-12.62c-0.22-9.52-0.15-19.05-0.03-28.57C-0.65,120.72,0,116.6,0,112.47
	c0.01-33.35,0.08-66.7,0.14-100.05c0-1.18,0.06-2.36,0.09-3.54c0.65-0.42,1.39-0.28,2.1-0.28c14.79-0.01,29.57-0.01,44.36,0
	c0.7,0,1.45-0.16,2.08,0.31c0.05,0.68,0.13,1.37,0.13,2.05c-0.02,36.14-0.06,72.29-0.09,108.43c0,0.59-0.06,1.17-0.09,1.76
	C48.34,127.05,48.34,132.94,48.71,138.83z"/>
<path class="st0" d="M643.86,35.48c-1.92,3.44-3.6,6.56-5.38,9.62c-15.63,26.87-31.23,53.77-47.01,80.56
	c-1.65,2.79-1.65,4.71,0.16,7.37c19.14,28.2,36.01,57.71,53.99,86.58c0.3,0.49,0.52,1.02,0.95,1.85c-2.12,0.11-3.92,0.27-5.71,0.27
	c-18.37,0.09-36.75,0.1-55.12,0.26c-3.37,0.03-5.53-0.84-7.35-3.86c-6.01-9.95-12.42-19.69-18.68-29.5
	c-0.52-0.81-1.12-1.57-1.8-2.51c-2.21,2.83-4.27,5.51-6.38,8.14c-14.1,17.6-32.89,26.32-55.86,27.34
	c-8.82,0.39-17.63,0.61-26.46,0.33c-0.79-0.02-1.57-0.08-2.62-0.14c1.87-4.27,4.29-7.89,6.77-11.46
	c17.97-25.87,34.48-52.62,51.85-78.85c1.26-1.9,1.38-3.28,0.2-5.27c-12.04-20.36-25.03-40.18-37.38-60.36
	c-5.45-8.9-11.05-17.72-16.49-26.63c-2.29-3.74-1.97-4.16,2.65-4.24c11.8-0.21,23.63-0.57,35.27,1.83
	c15.86,3.26,28.1,12.01,38.16,23.85c2.85,3.35,5.54,6.84,8.08,10.41c1.26,1.77,1.88,1.8,3.12,0.03c3.77-5.4,8.1-10.38,12.73-15.14
	c13.47-13.86,30.36-19.98,49.75-20.43C628.66,35.33,636.02,35.48,643.86,35.48z"/>
<path class="st0" d="M315.59,139.1c0.2,12.83-1.12,24.92-5.51,36.54c-9.57,25.34-28.74,39.88-56.02,44.61
	c-17.95,3.11-35.66,1.36-52.51-5.45c-19.74-7.97-32.95-21.98-38.26-41.94c-6.06-22.79-6.73-45.87,0.95-68.42
	c8.49-24.9,26.94-39.8,53.58-45.29c16.22-3.34,32.42-3.38,48.32,1.63c27.3,8.61,42.78,26.95,47.55,53.88
	C315.16,122.92,315.74,131.26,315.59,139.1z"/>
<path class="st0" d="M390.74,93.22c0-31.91,0.02-56.91-0.04-81.92c-0.01-2.13,0.29-3.08,2.93-3.04c15.29,0.2,30.59,0.24,45.89,0.2
	c2.45-0.01,3.07,0.67,3.05,2.97c-0.11,15.06,0.03,30.12-0.14,45.18c-0.03,2.73,0.85,3.22,3.44,3.17c6.87-0.14,13.75,0.07,20.63,0.04
	c1.93-0.01,2.67,0.51,2.65,2.52c-0.12,13.68-0.16,27.36-0.1,41.04c0.01,2.12-0.9,2.37-2.72,2.36c-6.88-0.02-13.76,0.17-20.63,0.07
	c-2.55-0.04-3.23,0.75-3.22,3.17c0.07,36.52,0.04,73.04,0.04,109.55c0,3.95-0.01,3.99-3.92,2.9c-22.75-6.35-38.76-19.51-45.66-41.77
	c-2.48-8.02-2.64-16.32-2.72-24.57C390,132.17,391.12,109.24,390.74,93.22z"/>
<path class="st0" d="M375.13,115.17c0,34.45-0.03,68.9,0.06,103.35c0.01,2.64-0.62,3.53-3.55,3.49
	c-14.06-0.15-28.13-0.12-42.19-0.02c-2.49,0.02-3.33-0.57-3.32-3.1c0.12-31.11,0.09-62.21,0.15-93.32
	c0.08-37.9,0.26-75.79,0.28-113.69c0-2.79,0.63-3.63,3.67-3.6c13.86,0.16,27.72,0.11,41.58-0.03c2.46-0.02,3.06,0.65,3.05,2.95
	c-0.07,34.65-0.05,69.3-0.05,103.95C374.91,115.17,375.02,115.17,375.13,115.17z"/>
<path class="st1" d="M48.76,8.92C32.58,8.91,16.41,8.9,0.23,8.89c0.46-1.04,1.42-0.57,2.13-0.57c14.75-0.02,29.5-0.02,44.26,0.02
	C47.34,8.33,48.29,7.91,48.76,8.92z"/>
<path class="st2" d="M-0.08,124.85c0.37,9.52,0.31,19.05,0.03,28.57c-0.88-4.74-0.38-9.52-0.4-14.28
	C-0.48,134.38-0.79,129.6-0.08,124.85z"/>
<path class="st3" d="M48.71,138.83c-1.15-2.64-0.48-5.41-0.46-8.1c0.03-3.18-0.7-6.43,0.45-9.57
	C48.71,127.05,48.71,132.94,48.71,138.83z"/>
</svg>
