<?xml version="1.0" encoding="utf-8"?>
<!-- Generator: Adobe Illustrator 26.1.0, SVG Export Plug-In . SVG Version: 6.00 Build 0)  -->
<svg version="1.1" id="Layer_1" xmlns="http://www.w3.org/2000/svg" xmlns:xlink="http://www.w3.org/1999/xlink" x="0px" y="0px"
	 viewBox="0 0 299.6 98.9" style="enable-background:new 0 0 299.6 98.9;" xml:space="preserve">
<style type="text/css">
	.st0{fill:#4B5DFF;}
</style>
<path class="st0" d="M151.4,80.3c-16.9,0.9-31.4-12.2-32.2-29.2s12.2-31.5,29.1-32.4c16.9-0.8,31.2,12.2,32.1,29.2
	C181.3,64.9,168.3,79.4,151.4,80.3z M164.5,27.3c-9.4,7.9-18.7,15.8-28.4,23.3c2.4,0.9,4.9,1.7,7.4,2.5c-1.4,2.7-2.6,5.5-3.9,8.2
	c-1.8,4-3.7,7.9-5.3,12c0.2,0,0.2,0.1,0.3,0c8.9-8.1,18.6-15.4,27.9-23c-2.6-0.8-5.2-1.7-7.7-2.6c1.2-2.3,9.7-19.1,9.9-20.3
	L164.5,27.3z"/>
</svg>
