<?xml version="1.0" encoding="utf-8"?>
<!-- Generator: Adobe Illustrator 26.1.0, SVG Export Plug-In . SVG Version: 6.00 Build 0)  -->
<svg version="1.1" id="Layer_1" xmlns="http://www.w3.org/2000/svg" xmlns:xlink="http://www.w3.org/1999/xlink" x="0px" y="0px"
	 viewBox="0 0 38.2 35.6" style="enable-background:new 0 0 38.2 35.6;" xml:space="preserve">
<style type="text/css">
	.st0{fill:#4B5DFF;}
</style>
<path class="st0" d="M18.8,33.7C10,34.2,2.4,27.4,2,18.6S8.4,2.2,17.2,1.8C26,1.4,33.5,8.1,34,16.9C34.4,25.7,27.6,33.3,18.8,33.7z
	 M25.7,6.2c-4.9,4.1-9.8,8.2-14.8,12.1c1.3,0.5,2.6,0.9,3.9,1.3c-0.7,1.4-1.4,2.9-2,4.3c-0.9,2.1-1.9,4.1-2.8,6.2
	c0.1,0,0.1,0.1,0.2,0c4.6-4.2,9.7-8,14.6-11.9c-1.4-0.4-2.7-0.9-4-1.3c0.6-1.2,5.1-9.9,5.2-10.5L25.7,6.2z"/>
</svg>
