<svg viewBox="217.088 403.456 583.68 225.28" xmlns:xlink="http://www.w3.org/1999/xlink" xmlns="http://www.w3.org/2000/svg" style="max-height: 500px" width="583.68" height="225.28"><path d="M0 0L1024 0L1024 1024L0 1024L0 0Z" fill="white"/><path d="M432.254 459.693C432.361 459.677 432.466 459.653 432.574 459.644C450.524 458.257 469.625 463.32 483.378 475.198C497.502 487.396 502.689 505.077 503.868 523.142C505.36 546.019 503.112 570.123 487.239 588C475.893 600.778 459.478 607.438 442.625 608.493C423.78 608.746 405.918 605.967 390.76 593.938C377.197 583.174 371.066 567.232 369.189 550.43C366.62 527.429 368.306 501.33 383.462 482.679C396.003 467.246 413.104 461.735 432.254 459.693Z" fill="#5A00CC"/><path d="M434.501 506.138C438.48 505.792 442.95 506.588 446.3 508.832C450.732 511.801 452.806 516.629 453.825 521.69C455.924 532.112 456.507 548.183 450.114 557.322C446.989 561.788 442.722 563.049 437.621 563.905C433.706 564.034 429.795 563.144 426.536 560.925C421.168 557.271 418.861 550.964 417.889 544.804C416.334 534.959 416.173 521.052 422.507 512.732C425.666 508.584 429.471 506.933 434.501 506.138Z" fill="white"/><path d="M230.074 415.509L272.528 415.517L272.481 501.064C272.474 513.866 271.352 532.632 273.165 544.685C273.846 549.215 275.406 553.683 278.736 556.955C282.771 560.921 289.136 562.385 294.66 562.116C300.002 561.856 304.865 559.716 308.411 555.665C313.809 549.499 315.029 540.824 314.625 532.92C314.258 525.73 312.178 517.991 306.543 513.109C299.077 506.641 288.637 508.059 279.567 508.704L279.559 460.132C286.762 459.961 293.95 459.892 301.128 460.661C320.293 462.713 334.373 470.859 346.389 485.785C356.214 499.49 359.647 515.951 359.86 532.554C360.123 552.956 356.158 574.211 341.303 589.217C328.157 602.496 309.859 608.589 291.42 608.588C275.087 608.587 258.181 603.313 246.478 591.525C240.016 585.016 234.486 575.943 232.301 566.992C227.4 546.911 229.977 523.844 230.007 503.295L230.074 415.509Z" fill="#5A00CC"/><path d="M639.344 439.741C646.756 439.423 654.363 439.193 661.766 439.717C679.497 440.973 693.86 448.461 705.317 462.082C708.295 465.623 710.63 469.735 713.689 473.19L714.357 473.934C718.536 468.094 722.861 462.335 727.992 457.286C745.797 439.764 765.966 439.848 789.434 440.045C773.908 468.583 758.132 496.985 742.105 525.245C759.485 552.507 775.47 580.562 791.814 608.446L786.349 608.833C769.198 609.129 752.013 608.937 734.859 608.966C728.183 598.067 721.837 586.944 714.717 576.325C711.215 581.442 707.686 586.307 703.256 590.687C683.94 609.792 660.653 609.123 635.337 608.952C639.636 599.656 646.269 591.337 651.692 582.664L687.766 524.617C683.559 516.028 678.269 507.855 673.347 499.664L650.972 462.381C647.161 456.018 640.804 447.414 638.645 440.505L639.344 439.741Z" fill="#5A00CC"/><path d="M569.543 415.511L614.492 415.579L614.525 462.02C622.225 461.974 629.926 462.024 637.625 462.171L637.507 503.485C629.857 503.565 622.209 503.741 614.563 504.013L614.52 586.75L614.486 609.357C603.316 606.59 593.13 601.951 584.908 593.714C577.885 586.694 573.021 577.809 570.891 568.11C567.146 551.326 569.484 530.222 569.521 512.932L569.543 415.511Z" fill="#5A00CC"/><path d="M513.864 415.548C527.836 415.399 541.825 415.536 555.8 415.531L555.978 608.973L513.529 608.969L513.864 415.548Z" fill="#5A00CC"/></svg>